<?xml version="1.0" encoding="UTF-8" standalone="no"?>
<svg width="441.678mm" height="25.4mm"
 xmlns="http://www.w3.org/2000/svg" xmlns:xlink="http://www.w3.org/1999/xlink"  version="1.2" baseProfile="tiny">
<title>Qt SVG Document</title>
<desc>Generated with Qt</desc>
<defs>
</defs>
<g fill="none" stroke="black" stroke-width="1" fill-rule="evenodd" stroke-linecap="square" stroke-linejoin="bevel" >

<g fill="none" stroke="#000000" stroke-opacity="1" stroke-width="1" stroke-linecap="square" stroke-linejoin="bevel" transform="matrix(1,0,0,1,0,0)"
font-family="Sans Serif" font-size="9" font-weight="400" font-style="normal" 
>
</g>

<g fill="none" stroke="#000000" stroke-opacity="1" stroke-width="1" stroke-linecap="square" stroke-linejoin="bevel" transform="matrix(1,0,0,1,0,0)"
font-family="Sans Serif" font-size="9" font-weight="400" font-style="normal" 
>
</g>

<g fill="none" stroke="#000000" stroke-opacity="1" stroke-width="1" stroke-linecap="square" stroke-linejoin="bevel" transform="matrix(1.99949,0,0,1.99949,1.42072e-14,71.9815)"
font-family="Sans Serif" font-size="9" font-weight="400" font-style="normal" 
>
</g>

<g fill="#ffffff" fill-opacity="1" stroke="none" transform="matrix(1.99949,0,0,1.99949,1.42072e-14,71.9815)"
font-family="Sans Serif" font-size="9" font-weight="400" font-style="normal" 
>
<rect x="-7.10543e-15" y="-36" width="626.161" height="36"/>
</g>

<g fill="none" stroke="#000000" stroke-opacity="1" stroke-width="1" stroke-linecap="square" stroke-linejoin="bevel" transform="matrix(1.99949,0,0,1.99949,1.42072e-14,71.9815)"
font-family="Sans Serif" font-size="9" font-weight="400" font-style="normal" 
>
</g>

<g fill="none" stroke="#000000" stroke-opacity="1" stroke-width="1" stroke-linecap="square" stroke-linejoin="bevel" transform="matrix(1.99949,0,0,1.99949,1.42072e-14,71.9815)"
font-family="Sans Serif" font-size="9" font-weight="400" font-style="normal" 
>
</g>

<g fill="none" stroke="#000000" stroke-opacity="1" stroke-width="1" stroke-linecap="square" stroke-linejoin="bevel" transform="matrix(1.99949,0,0,1.99949,1.42072e-14,71.9815)"
font-family="Sans Serif" font-size="9" font-weight="400" font-style="normal" 
>
</g>

<g fill="none" stroke="#000000" stroke-opacity="1" stroke-width="1" stroke-linecap="square" stroke-linejoin="bevel" transform="matrix(1.99949,0,0,1.99949,1.42072e-14,71.9815)"
font-family="Sans Serif" font-size="9" font-weight="400" font-style="normal" 
>
</g>

<g fill="none" stroke="#000000" stroke-opacity="1" stroke-width="1" stroke-linecap="square" stroke-linejoin="round" transform="matrix(1.99949,0,0,1.99949,1.42072e-14,71.9815)"
font-family="Sans Serif" font-size="9" font-weight="400" font-style="normal" 
>
<rect x="110.69" y="-35.5" width="64.0002" height="35"/>
</g>

<g fill="none" stroke="#000000" stroke-opacity="1" stroke-width="1" stroke-linecap="square" stroke-linejoin="bevel" transform="matrix(1.99949,0,0,1.99949,1.42072e-14,71.9815)"
font-family="Sans Serif" font-size="9" font-weight="400" font-style="normal" 
>
</g>

<g fill="none" stroke="#000000" stroke-opacity="1" stroke-width="1" stroke-linecap="square" stroke-linejoin="bevel" transform="matrix(1.99949,0,0,1.99949,247.394,21.9943)"
font-family="Sans Serif" font-size="9" font-weight="400" font-style="normal" 
>
</g>

<g fill="none" stroke="#000000" stroke-opacity="1" stroke-width="1" stroke-linecap="square" stroke-linejoin="bevel" transform="matrix(1.99949,0,0,1.99949,247.394,21.9943)"
font-family="sans" font-size="11" font-weight="100" font-style="normal" 
>
</g>

<g fill="#000000" fill-opacity="1" stroke="#000000" stroke-opacity="1" stroke-width="1" stroke-linecap="square" stroke-linejoin="round" transform="matrix(1.99949,0,0,1.99949,247.394,21.9943)"
font-family="sans" font-size="11" font-weight="100" font-style="normal" 
>
<path vector-effect="none" fill-rule="nonzero" d="M2.79688,2.98438 L3.70313,2.98438 L0.921875,12.0156 L0,12.0156 L2.79688,2.98438 M4.75,4.98438 L5.73438,4.98438 L5.73438,11 L4.75,11 L4.75,4.98438 M4.75,2.64063 L5.73438,2.64063 L5.73438,3.89063 L4.75,3.89063 L4.75,2.64063 M12.4688,6.14063 C12.7188,5.69271 13.0156,5.36458 13.3594,5.15625 C13.7031,4.94792 14.1094,4.84375 14.5781,4.84375 C15.2031,4.84375 15.6849,5.0625 16.0234,5.5 C16.362,5.9375 16.5313,6.5625 16.5313,7.375 L16.5313,11 L15.5469,11 L15.5469,7.40625 C15.5469,6.82292 15.4427,6.39323 15.2344,6.11719 C15.026,5.84115 14.7135,5.70313 14.2969,5.70313 C13.7865,5.70313 13.3828,5.8724 13.0859,6.21094 C12.7891,6.54948 12.6406,7.01042 12.6406,7.59375 L12.6406,11 L11.6406,11 L11.6406,7.40625 C11.6406,6.82292 11.5391,6.39323 11.3359,6.11719 C11.1328,5.84115 10.8177,5.70313 10.3906,5.70313 C9.89063,5.70313 9.49219,5.8724 9.19531,6.21094 C8.89844,6.54948 8.75,7.01042 8.75,7.59375 L8.75,11 L7.75,11 L7.75,4.98438 L8.75,4.98438 L8.75,5.92188 C8.96875,5.54688 9.23698,5.27344 9.55469,5.10156 C9.8724,4.92969 10.2448,4.84375 10.6719,4.84375 C11.1094,4.84375 11.4818,4.95313 11.7891,5.17188 C12.0964,5.39063 12.3229,5.71354 12.4688,6.14063 M21.2188,7.96875 C20.4271,7.96875 19.8776,8.0625 19.5703,8.25 C19.263,8.4375 19.1094,8.75 19.1094,9.1875 C19.1094,9.53125 19.224,9.80729 19.4531,10.0156 C19.6823,10.224 19.9948,10.3281 20.3906,10.3281 C20.9427,10.3281 21.3828,10.1328 21.7109,9.74219 C22.0391,9.35156 22.2031,8.83854 22.2031,8.20313 L22.2031,7.96875 L21.2188,7.96875 M23.2031,7.5625 L23.2031,11 L22.2031,11 L22.2031,10.0938 C21.9844,10.4583 21.7057,10.7266 21.3672,10.8984 C21.0286,11.0703 20.6146,11.1563 20.125,11.1563 C19.5104,11.1563 19.0208,10.9844 18.6563,10.6406 C18.2917,10.2969 18.1094,9.83333 18.1094,9.25 C18.1094,8.57292 18.3359,8.0625 18.7891,7.71875 C19.2422,7.375 19.9219,7.20313 20.8281,7.20313 L22.2031,7.20313 L22.2031,7.10938 C22.2031,6.65104 22.0547,6.29688 21.7578,6.04688 C21.4609,5.79688 21.0417,5.67188 20.5,5.67188 C20.1563,5.67188 19.8229,5.71354 19.5,5.79688 C19.1771,5.88021 18.8646,6.00521 18.5625,6.17188 L18.5625,5.26563 C18.9167,5.11979 19.2656,5.01302 19.6094,4.94531 C19.9531,4.8776 20.2865,4.84375 20.6094,4.84375 C21.474,4.84375 22.1224,5.06771 22.5547,5.51563 C22.987,5.96354 23.2031,6.64583 23.2031,7.5625 M29.1875,7.92188 C29.1875,7.20313 29.0391,6.64844 28.7422,6.25781 C28.4453,5.86719 28.0313,5.67188 27.5,5.67188 C26.9688,5.67188 26.5547,5.86719 26.2578,6.25781 C25.9609,6.64844 25.8125,7.20313 25.8125,7.92188 C25.8125,8.63021 25.9609,9.18229 26.2578,9.57813 C26.5547,9.97396 26.9688,10.1719 27.5,10.1719 C28.0313,10.1719 28.4453,9.97396 28.7422,9.57813 C29.0391,9.18229 29.1875,8.63021 29.1875,7.92188 M30.1719,10.25 C30.1719,11.2813 29.9453,12.0443 29.4922,12.5391 C29.0391,13.0339 28.3438,13.2813 27.4063,13.2813 C27.0521,13.2813 26.7214,13.2552 26.4141,13.2031 C26.1068,13.151 25.8073,13.0729 25.5156,12.9688 L25.5156,12.0156 C25.8073,12.1719 26.0964,12.2865 26.3828,12.3594 C26.6693,12.4323 26.9583,12.4688 27.25,12.4688 C27.8958,12.4688 28.3802,12.2995 28.7031,11.9609 C29.026,11.6224 29.1875,11.1146 29.1875,10.4375 L29.1875,9.9375 C28.9792,10.2917 28.7161,10.5573 28.3984,10.7344 C28.0807,10.9115 27.6979,11 27.25,11 C26.5208,11 25.9297,10.7188 25.4766,10.1563 C25.0234,9.59375 24.7969,8.84896 24.7969,7.92188 C24.7969,6.99479 25.0234,6.25 25.4766,5.6875 C25.9297,5.125 26.5208,4.84375 27.25,4.84375 C27.6979,4.84375 28.0807,4.92969 28.3984,5.10156 C28.7161,5.27344 28.9792,5.53646 29.1875,5.89063 L29.1875,4.98438 L30.1719,4.98438 L30.1719,10.25 M37.3438,7.75 L37.3438,8.23438 L32.7969,8.23438 C32.8385,8.91146 33.0443,9.42708 33.4141,9.78125 C33.7839,10.1354 34.2969,10.3125 34.9531,10.3125 C35.3281,10.3125 35.6927,10.2656 36.0469,10.1719 C36.401,10.0781 36.7552,9.94271 37.1094,9.76563 L37.1094,10.6875 C36.7552,10.8438 36.3932,10.9609 36.0234,11.0391 C35.6536,11.1172 35.276,11.1563 34.8906,11.1563 C33.9323,11.1563 33.1719,10.8776 32.6094,10.3203 C32.0469,9.76302 31.7656,9.00521 31.7656,8.04688 C31.7656,7.06771 32.0313,6.28906 32.5625,5.71094 C33.0938,5.13281 33.8125,4.84375 34.7188,4.84375 C35.5208,4.84375 36.1589,5.10417 36.6328,5.625 C37.1068,6.14583 37.3438,6.85417 37.3438,7.75 M36.3594,7.45313 C36.349,6.91146 36.1953,6.47917 35.8984,6.15625 C35.6016,5.83333 35.2083,5.67188 34.7188,5.67188 C34.1667,5.67188 33.7266,5.82813 33.3984,6.14063 C33.0703,6.45313 32.8802,6.89063 32.8281,7.45313 L36.3594,7.45313"/>
</g>

<g fill="none" stroke="#000000" stroke-opacity="1" stroke-width="1" stroke-linecap="square" stroke-linejoin="bevel" transform="matrix(1.99949,0,0,1.99949,247.394,21.9943)"
font-family="sans" font-size="11" font-weight="100" font-style="normal" 
>
</g>

<g fill="none" stroke="#000000" stroke-opacity="1" stroke-width="1" stroke-linecap="square" stroke-linejoin="bevel" transform="matrix(1.99949,0,0,1.99949,247.394,21.9943)"
font-family="Sans Serif" font-size="9" font-weight="400" font-style="normal" 
>
</g>

<g fill="none" stroke="#000000" stroke-opacity="1" stroke-width="1" stroke-linecap="square" stroke-linejoin="bevel" transform="matrix(1.99949,0,0,1.99949,1.42072e-14,71.9815)"
font-family="Sans Serif" font-size="9" font-weight="400" font-style="normal" 
>
</g>

<g fill="none" stroke="#000000" stroke-opacity="1" stroke-width="1" stroke-linecap="square" stroke-linejoin="bevel" transform="matrix(1.99949,0,0,1.99949,1.42072e-14,71.9815)"
font-family="Sans Serif" font-size="9" font-weight="400" font-style="normal" 
>
</g>

<g fill="none" stroke="#000000" stroke-opacity="1" stroke-width="1" stroke-linecap="square" stroke-linejoin="bevel" transform="matrix(1.99949,0,0,1.99949,1.42072e-14,71.9815)"
font-family="Sans Serif" font-size="9" font-weight="400" font-style="normal" 
>
</g>

<g fill="none" stroke="#000000" stroke-opacity="1" stroke-width="1" stroke-linecap="square" stroke-linejoin="round" transform="matrix(1.99949,0,0,1.99949,1.42072e-14,71.9815)"
font-family="Sans Serif" font-size="9" font-weight="400" font-style="normal" 
>
<ellipse cx="258.74" cy="-18" rx="69.0448" ry="17.5"/>
</g>

<g fill="none" stroke="#000000" stroke-opacity="1" stroke-width="1" stroke-linecap="square" stroke-linejoin="bevel" transform="matrix(1.99949,0,0,1.99949,1.42072e-14,71.9815)"
font-family="Sans Serif" font-size="9" font-weight="400" font-style="normal" 
>
</g>

<g fill="none" stroke="#000000" stroke-opacity="1" stroke-width="1" stroke-linecap="square" stroke-linejoin="bevel" transform="matrix(1.99949,0,0,1.99949,446.677,21.9943)"
font-family="Sans Serif" font-size="9" font-weight="400" font-style="normal" 
>
</g>

<g fill="none" stroke="#000000" stroke-opacity="1" stroke-width="1" stroke-linecap="square" stroke-linejoin="bevel" transform="matrix(1.99949,0,0,1.99949,446.677,21.9943)"
font-family="sans" font-size="11" font-weight="100" font-style="normal" 
>
</g>

<g fill="#000000" fill-opacity="1" stroke="#000000" stroke-opacity="1" stroke-width="1" stroke-linecap="square" stroke-linejoin="round" transform="matrix(1.99949,0,0,1.99949,446.677,21.9943)"
font-family="sans" font-size="11" font-weight="100" font-style="normal" 
>
<path vector-effect="none" fill-rule="nonzero" d="M2.79688,2.98438 L3.70313,2.98438 L0.921875,12.0156 L0,12.0156 L2.79688,2.98438 M5.70313,10.0938 L5.70313,13.2813 L4.70313,13.2813 L4.70313,4.98438 L5.70313,4.98438 L5.70313,5.89063 C5.91146,5.53646 6.17188,5.27344 6.48438,5.10156 C6.79688,4.92969 7.17708,4.84375 7.625,4.84375 C8.35417,4.84375 8.94792,5.13281 9.40625,5.71094 C9.86458,6.28906 10.0938,7.05208 10.0938,8 C10.0938,8.94792 9.86458,9.71094 9.40625,10.2891 C8.94792,10.8672 8.35417,11.1563 7.625,11.1563 C7.17708,11.1563 6.79688,11.0703 6.48438,10.8984 C6.17188,10.7266 5.91146,10.4583 5.70313,10.0938 M9.0625,8 C9.0625,7.27083 8.91146,6.70052 8.60938,6.28906 C8.30729,5.8776 7.89583,5.67188 7.375,5.67188 C6.85417,5.67188 6.44531,5.8776 6.14844,6.28906 C5.85156,6.70052 5.70313,7.27083 5.70313,8 C5.70313,8.72917 5.85156,9.29948 6.14844,9.71094 C6.44531,10.1224 6.85417,10.3281 7.375,10.3281 C7.89583,10.3281 8.30729,10.1224 8.60938,9.71094 C8.91146,9.29948 9.0625,8.72917 9.0625,8 M14.2188,11.5625 C13.9375,12.2813 13.6641,12.7474 13.3984,12.9609 C13.1328,13.1745 12.776,13.2813 12.3281,13.2813 L11.5469,13.2813 L11.5469,12.4688 L12.125,12.4688 C12.3958,12.4688 12.6068,12.4036 12.7578,12.2734 C12.9089,12.1432 13.0781,11.8385 13.2656,11.3594 L13.4375,10.9063 L11,4.98438 L12.0469,4.98438 L13.9219,9.6875 L15.8125,4.98438 L16.8594,4.98438 L14.2188,11.5625 M19.1875,3.28125 L19.1875,4.98438 L21.2188,4.98438 L21.2188,5.75 L19.1875,5.75 L19.1875,9.01563 C19.1875,9.50521 19.2552,9.82031 19.3906,9.96094 C19.526,10.1016 19.7969,10.1719 20.2031,10.1719 L21.2188,10.1719 L21.2188,11 L20.2031,11 C19.4427,11 18.9167,10.8568 18.625,10.5703 C18.3333,10.2839 18.1875,9.76563 18.1875,9.01563 L18.1875,5.75 L17.4688,5.75 L17.4688,4.98438 L18.1875,4.98438 L18.1875,3.28125 L19.1875,3.28125 M24.8594,5.67188 C24.3281,5.67188 23.9089,5.88021 23.6016,6.29688 C23.2943,6.71354 23.1406,7.28125 23.1406,8 C23.1406,8.71875 23.2917,9.28385 23.5938,9.69531 C23.8958,10.1068 24.3177,10.3125 24.8594,10.3125 C25.3802,10.3125 25.7943,10.1068 26.1016,9.69531 C26.4089,9.28385 26.5625,8.71875 26.5625,8 C26.5625,7.28125 26.4089,6.71354 26.1016,6.29688 C25.7943,5.88021 25.3802,5.67188 24.8594,5.67188 M24.8594,4.84375 C25.7135,4.84375 26.3854,5.1224 26.875,5.67969 C27.3646,6.23698 27.6094,7.01042 27.6094,8 C27.6094,8.97917 27.3646,9.75 26.875,10.3125 C26.3854,10.875 25.7135,11.1563 24.8594,11.1563 C23.9948,11.1563 23.3177,10.875 22.8281,10.3125 C22.3385,9.75 22.0938,8.97917 22.0938,8 C22.0938,7.01042 22.3385,6.23698 22.8281,5.67969 C23.3177,5.1224 23.9948,4.84375 24.8594,4.84375 M32.7344,5.90625 C32.6198,5.84375 32.4974,5.79688 32.3672,5.76563 C32.237,5.73438 32.0938,5.71875 31.9375,5.71875 C31.375,5.71875 30.9453,5.90104 30.6484,6.26563 C30.3516,6.63021 30.2031,7.15104 30.2031,7.82813 L30.2031,11 L29.2031,11 L29.2031,4.98438 L30.2031,4.98438 L30.2031,5.92188 C30.4115,5.55729 30.6823,5.28646 31.0156,5.10938 C31.349,4.93229 31.75,4.84375 32.2188,4.84375 C32.2917,4.84375 32.3698,4.84635 32.4531,4.85156 C32.5365,4.85677 32.625,4.86979 32.7188,4.89063 L32.7344,5.90625 M38.0938,5.21875 L38.0938,6.14063 C37.8125,5.98438 37.5313,5.86719 37.25,5.78906 C36.9688,5.71094 36.6823,5.67188 36.3906,5.67188 C35.7552,5.67188 35.2604,5.875 34.9063,6.28125 C34.5521,6.6875 34.375,7.26042 34.375,8 C34.375,8.72917 34.5521,9.29688 34.9063,9.70313 C35.2604,10.1094 35.7552,10.3125 36.3906,10.3125 C36.6823,10.3125 36.9688,10.276 37.25,10.2031 C37.5313,10.1302 37.8125,10.0156 38.0938,9.85938 L38.0938,10.7656 C37.8125,10.901 37.5234,11 37.2266,11.0625 C36.9297,11.125 36.6146,11.1563 36.2813,11.1563 C35.375,11.1563 34.6563,10.8724 34.125,10.3047 C33.5938,9.73698 33.3281,8.96875 33.3281,8 C33.3281,7.02083 33.5964,6.25 34.1328,5.6875 C34.6693,5.125 35.4115,4.84375 36.3594,4.84375 C36.6615,4.84375 36.9557,4.875 37.2422,4.9375 C37.5286,5 37.8125,5.09375 38.0938,5.21875 M44.8125,7.375 L44.8125,11 L43.8125,11 L43.8125,7.40625 C43.8125,6.83333 43.7031,6.40625 43.4844,6.125 C43.2656,5.84375 42.9323,5.70313 42.4844,5.70313 C41.9531,5.70313 41.5339,5.8724 41.2266,6.21094 C40.9193,6.54948 40.7656,7.01042 40.7656,7.59375 L40.7656,11 L39.7656,11 L39.7656,2.64063 L40.7656,2.64063 L40.7656,5.92188 C40.9948,5.55729 41.2708,5.28646 41.5938,5.10938 C41.9167,4.93229 42.2865,4.84375 42.7031,4.84375 C43.3906,4.84375 43.9141,5.05729 44.2734,5.48438 C44.6328,5.91146 44.8125,6.54167 44.8125,7.375 M51.3438,12.8281 L51.3438,13.5938 L45.625,13.5938 L45.625,12.8281 L51.3438,12.8281 M56.1094,5.15625 L56.1094,6.09375 C55.8281,5.94792 55.5365,5.84115 55.2344,5.77344 C54.9323,5.70573 54.6198,5.67188 54.2969,5.67188 C53.8073,5.67188 53.4401,5.7474 53.1953,5.89844 C52.9505,6.04948 52.8281,6.27083 52.8281,6.5625 C52.8281,6.79167 52.9167,6.97135 53.0938,7.10156 C53.2708,7.23177 53.625,7.35938 54.1563,7.48438 L54.4844,7.5625 C55.1927,7.70833 55.6953,7.91927 55.9922,8.19531 C56.2891,8.47135 56.4375,8.85417 56.4375,9.34375 C56.4375,9.89583 56.2161,10.3359 55.7734,10.6641 C55.3307,10.9922 54.7188,11.1563 53.9375,11.1563 C53.6146,11.1563 53.2786,11.125 52.9297,11.0625 C52.5807,11 52.2135,10.9063 51.8281,10.7813 L51.8281,9.76563 C52.1927,9.95313 52.5521,10.0938 52.9063,10.1875 C53.2604,10.2813 53.6146,10.3281 53.9688,10.3281 C54.4271,10.3281 54.7839,10.2474 55.0391,10.0859 C55.2943,9.92448 55.4219,9.70313 55.4219,9.42188 C55.4219,9.15104 55.3307,8.94271 55.1484,8.79688 C54.9661,8.65104 54.5677,8.51563 53.9531,8.39063 L53.6094,8.29688 C52.9948,8.17188 52.5521,7.97656 52.2813,7.71094 C52.0104,7.44531 51.875,7.07813 51.875,6.60938 C51.875,6.04688 52.0755,5.61198 52.4766,5.30469 C52.8776,4.9974 53.4479,4.84375 54.1875,4.84375 C54.5521,4.84375 54.8958,4.86979 55.2188,4.92188 C55.5417,4.97396 55.8385,5.05208 56.1094,5.15625 M63.1406,7.75 L63.1406,8.23438 L58.5938,8.23438 C58.6354,8.91146 58.8411,9.42708 59.2109,9.78125 C59.5807,10.1354 60.0938,10.3125 60.75,10.3125 C61.125,10.3125 61.4896,10.2656 61.8438,10.1719 C62.1979,10.0781 62.5521,9.94271 62.9063,9.76563 L62.9063,10.6875 C62.5521,10.8438 62.1901,10.9609 61.8203,11.0391 C61.4505,11.1172 61.0729,11.1563 60.6875,11.1563 C59.7292,11.1563 58.9688,10.8776 58.4063,10.3203 C57.8438,9.76302 57.5625,9.00521 57.5625,8.04688 C57.5625,7.06771 57.8281,6.28906 58.3594,5.71094 C58.8906,5.13281 59.6094,4.84375 60.5156,4.84375 C61.3177,4.84375 61.9557,5.10417 62.4297,5.625 C62.9036,6.14583 63.1406,6.85417 63.1406,7.75 M62.1563,7.45313 C62.1458,6.91146 61.9922,6.47917 61.6953,6.15625 C61.3984,5.83333 61.0052,5.67188 60.5156,5.67188 C59.9635,5.67188 59.5234,5.82813 59.1953,6.14063 C58.8672,6.45313 58.6771,6.89063 58.625,7.45313 L62.1563,7.45313 M68.7188,7.92188 C68.7188,7.20313 68.5703,6.64844 68.2734,6.25781 C67.9766,5.86719 67.5625,5.67188 67.0313,5.67188 C66.5,5.67188 66.0859,5.86719 65.7891,6.25781 C65.4922,6.64844 65.3438,7.20313 65.3438,7.92188 C65.3438,8.63021 65.4922,9.18229 65.7891,9.57813 C66.0859,9.97396 66.5,10.1719 67.0313,10.1719 C67.5625,10.1719 67.9766,9.97396 68.2734,9.57813 C68.5703,9.18229 68.7188,8.63021 68.7188,7.92188 M69.7031,10.25 C69.7031,11.2813 69.4766,12.0443 69.0234,12.5391 C68.5703,13.0339 67.875,13.2813 66.9375,13.2813 C66.5833,13.2813 66.2526,13.2552 65.9453,13.2031 C65.638,13.151 65.3385,13.0729 65.0469,12.9688 L65.0469,12.0156 C65.3385,12.1719 65.6276,12.2865 65.9141,12.3594 C66.2005,12.4323 66.4896,12.4688 66.7813,12.4688 C67.4271,12.4688 67.9115,12.2995 68.2344,11.9609 C68.5573,11.6224 68.7188,11.1146 68.7188,10.4375 L68.7188,9.9375 C68.5104,10.2917 68.2474,10.5573 67.9297,10.7344 C67.612,10.9115 67.2292,11 66.7813,11 C66.0521,11 65.4609,10.7188 65.0078,10.1563 C64.5547,9.59375 64.3281,8.84896 64.3281,7.92188 C64.3281,6.99479 64.5547,6.25 65.0078,5.6875 C65.4609,5.125 66.0521,4.84375 66.7813,4.84375 C67.2292,4.84375 67.612,4.92969 67.9297,5.10156 C68.2474,5.27344 68.5104,5.53646 68.7188,5.89063 L68.7188,4.98438 L69.7031,4.98438 L69.7031,10.25"/>
</g>

<g fill="none" stroke="#000000" stroke-opacity="1" stroke-width="1" stroke-linecap="square" stroke-linejoin="bevel" transform="matrix(1.99949,0,0,1.99949,446.677,21.9943)"
font-family="sans" font-size="11" font-weight="100" font-style="normal" 
>
</g>

<g fill="none" stroke="#000000" stroke-opacity="1" stroke-width="1" stroke-linecap="square" stroke-linejoin="bevel" transform="matrix(1.99949,0,0,1.99949,446.677,21.9943)"
font-family="Sans Serif" font-size="9" font-weight="400" font-style="normal" 
>
</g>

<g fill="none" stroke="#000000" stroke-opacity="1" stroke-width="1" stroke-linecap="square" stroke-linejoin="bevel" transform="matrix(1.99949,0,0,1.99949,1.42072e-14,71.9815)"
font-family="Sans Serif" font-size="9" font-weight="400" font-style="normal" 
>
</g>

<g fill="none" stroke="#000000" stroke-opacity="1" stroke-width="1" stroke-linecap="square" stroke-linejoin="bevel" transform="matrix(1.99949,0,0,1.99949,1.42072e-14,71.9815)"
font-family="Sans Serif" font-size="9" font-weight="400" font-style="normal" 
>
</g>

<g fill="none" stroke="#000000" stroke-opacity="1" stroke-width="1" stroke-linecap="square" stroke-linejoin="bevel" transform="matrix(1.99949,0,0,1.99949,1.42072e-14,71.9815)"
font-family="Sans Serif" font-size="9" font-weight="400" font-style="normal" 
>
</g>

<g fill="none" stroke="#000000" stroke-opacity="1" stroke-width="1" stroke-linecap="square" stroke-linejoin="round" transform="matrix(1.99949,0,0,1.99949,1.42072e-14,71.9815)"
font-family="Sans Serif" font-size="9" font-weight="400" font-style="normal" 
>
<rect x="342.779" y="-35.5" width="83.0024" height="35"/>
</g>

<g fill="none" stroke="#000000" stroke-opacity="1" stroke-width="1" stroke-linecap="square" stroke-linejoin="bevel" transform="matrix(1.99949,0,0,1.99949,1.42072e-14,71.9815)"
font-family="Sans Serif" font-size="9" font-weight="400" font-style="normal" 
>
</g>

<g fill="none" stroke="#000000" stroke-opacity="1" stroke-width="1" stroke-linecap="square" stroke-linejoin="bevel" transform="matrix(1.99949,0,0,1.99949,715.923,21.9943)"
font-family="Sans Serif" font-size="9" font-weight="400" font-style="normal" 
>
</g>

<g fill="none" stroke="#000000" stroke-opacity="1" stroke-width="1" stroke-linecap="square" stroke-linejoin="bevel" transform="matrix(1.99949,0,0,1.99949,715.923,21.9943)"
font-family="sans" font-size="11" font-weight="100" font-style="normal" 
>
</g>

<g fill="#000000" fill-opacity="1" stroke="#000000" stroke-opacity="1" stroke-width="1" stroke-linecap="square" stroke-linejoin="round" transform="matrix(1.99949,0,0,1.99949,715.923,21.9943)"
font-family="sans" font-size="11" font-weight="100" font-style="normal" 
>
<path vector-effect="none" fill-rule="nonzero" d="M2.79688,2.98438 L3.70313,2.98438 L0.921875,12.0156 L0,12.0156 L2.79688,2.98438 M8.57813,5.15625 L8.57813,6.09375 C8.29688,5.94792 8.00521,5.84115 7.70313,5.77344 C7.40104,5.70573 7.08854,5.67188 6.76563,5.67188 C6.27604,5.67188 5.90885,5.7474 5.66406,5.89844 C5.41927,6.04948 5.29688,6.27083 5.29688,6.5625 C5.29688,6.79167 5.38542,6.97135 5.5625,7.10156 C5.73958,7.23177 6.09375,7.35938 6.625,7.48438 L6.95313,7.5625 C7.66146,7.70833 8.16406,7.91927 8.46094,8.19531 C8.75781,8.47135 8.90625,8.85417 8.90625,9.34375 C8.90625,9.89583 8.6849,10.3359 8.24219,10.6641 C7.79948,10.9922 7.1875,11.1563 6.40625,11.1563 C6.08333,11.1563 5.7474,11.125 5.39844,11.0625 C5.04948,11 4.68229,10.9063 4.29688,10.7813 L4.29688,9.76563 C4.66146,9.95313 5.02083,10.0938 5.375,10.1875 C5.72917,10.2813 6.08333,10.3281 6.4375,10.3281 C6.89583,10.3281 7.2526,10.2474 7.50781,10.0859 C7.76302,9.92448 7.89063,9.70313 7.89063,9.42188 C7.89063,9.15104 7.79948,8.94271 7.61719,8.79688 C7.4349,8.65104 7.03646,8.51563 6.42188,8.39063 L6.07813,8.29688 C5.46354,8.17188 5.02083,7.97656 4.75,7.71094 C4.47917,7.44531 4.34375,7.07813 4.34375,6.60938 C4.34375,6.04688 4.54427,5.61198 4.94531,5.30469 C5.34635,4.9974 5.91667,4.84375 6.65625,4.84375 C7.02083,4.84375 7.36458,4.86979 7.6875,4.92188 C8.01042,4.97396 8.30729,5.05208 8.57813,5.15625 M15.6094,7.75 L15.6094,8.23438 L11.0625,8.23438 C11.1042,8.91146 11.3099,9.42708 11.6797,9.78125 C12.0495,10.1354 12.5625,10.3125 13.2188,10.3125 C13.5938,10.3125 13.9583,10.2656 14.3125,10.1719 C14.6667,10.0781 15.0208,9.94271 15.375,9.76563 L15.375,10.6875 C15.0208,10.8438 14.6589,10.9609 14.2891,11.0391 C13.9193,11.1172 13.5417,11.1563 13.1563,11.1563 C12.1979,11.1563 11.4375,10.8776 10.875,10.3203 C10.3125,9.76302 10.0313,9.00521 10.0313,8.04688 C10.0313,7.06771 10.2969,6.28906 10.8281,5.71094 C11.3594,5.13281 12.0781,4.84375 12.9844,4.84375 C13.7865,4.84375 14.4245,5.10417 14.8984,5.625 C15.3724,6.14583 15.6094,6.85417 15.6094,7.75 M14.625,7.45313 C14.6146,6.91146 14.4609,6.47917 14.1641,6.15625 C13.8672,5.83333 13.474,5.67188 12.9844,5.67188 C12.4323,5.67188 11.9922,5.82813 11.6641,6.14063 C11.3359,6.45313 11.1458,6.89063 11.0938,7.45313 L14.625,7.45313 M21.1875,7.92188 C21.1875,7.20313 21.0391,6.64844 20.7422,6.25781 C20.4453,5.86719 20.0313,5.67188 19.5,5.67188 C18.9688,5.67188 18.5547,5.86719 18.2578,6.25781 C17.9609,6.64844 17.8125,7.20313 17.8125,7.92188 C17.8125,8.63021 17.9609,9.18229 18.2578,9.57813 C18.5547,9.97396 18.9688,10.1719 19.5,10.1719 C20.0313,10.1719 20.4453,9.97396 20.7422,9.57813 C21.0391,9.18229 21.1875,8.63021 21.1875,7.92188 M22.1719,10.25 C22.1719,11.2813 21.9453,12.0443 21.4922,12.5391 C21.0391,13.0339 20.3438,13.2813 19.4063,13.2813 C19.0521,13.2813 18.7214,13.2552 18.4141,13.2031 C18.1068,13.151 17.8073,13.0729 17.5156,12.9688 L17.5156,12.0156 C17.8073,12.1719 18.0964,12.2865 18.3828,12.3594 C18.6693,12.4323 18.9583,12.4688 19.25,12.4688 C19.8958,12.4688 20.3802,12.2995 20.7031,11.9609 C21.026,11.6224 21.1875,11.1146 21.1875,10.4375 L21.1875,9.9375 C20.9792,10.2917 20.7161,10.5573 20.3984,10.7344 C20.0807,10.9115 19.6979,11 19.25,11 C18.5208,11 17.9297,10.7188 17.4766,10.1563 C17.0234,9.59375 16.7969,8.84896 16.7969,7.92188 C16.7969,6.99479 17.0234,6.25 17.4766,5.6875 C17.9297,5.125 18.5208,4.84375 19.25,4.84375 C19.6979,4.84375 20.0807,4.92969 20.3984,5.10156 C20.7161,5.27344 20.9792,5.53646 21.1875,5.89063 L21.1875,4.98438 L22.1719,4.98438 L22.1719,10.25 M24.2344,2.98438 L25.8594,2.98438 L27.9063,8.4375 L29.9531,2.98438 L31.5781,2.98438 L31.5781,11 L30.5156,11 L30.5156,3.95313 L28.4531,9.45313 L27.3594,9.45313 L25.2969,3.95313 L25.2969,11 L24.2344,11 L24.2344,2.98438 M36.4063,7.96875 C35.6146,7.96875 35.0651,8.0625 34.7578,8.25 C34.4505,8.4375 34.2969,8.75 34.2969,9.1875 C34.2969,9.53125 34.4115,9.80729 34.6406,10.0156 C34.8698,10.224 35.1823,10.3281 35.5781,10.3281 C36.1302,10.3281 36.5703,10.1328 36.8984,9.74219 C37.2266,9.35156 37.3906,8.83854 37.3906,8.20313 L37.3906,7.96875 L36.4063,7.96875 M38.3906,7.5625 L38.3906,11 L37.3906,11 L37.3906,10.0938 C37.1719,10.4583 36.8932,10.7266 36.5547,10.8984 C36.2161,11.0703 35.8021,11.1563 35.3125,11.1563 C34.6979,11.1563 34.2083,10.9844 33.8438,10.6406 C33.4792,10.2969 33.2969,9.83333 33.2969,9.25 C33.2969,8.57292 33.5234,8.0625 33.9766,7.71875 C34.4297,7.375 35.1094,7.20313 36.0156,7.20313 L37.3906,7.20313 L37.3906,7.10938 C37.3906,6.65104 37.2422,6.29688 36.9453,6.04688 C36.6484,5.79688 36.2292,5.67188 35.6875,5.67188 C35.3438,5.67188 35.0104,5.71354 34.6875,5.79688 C34.3646,5.88021 34.0521,6.00521 33.75,6.17188 L33.75,5.26563 C34.1042,5.11979 34.4531,5.01302 34.7969,4.94531 C35.1406,4.8776 35.474,4.84375 35.7969,4.84375 C36.6615,4.84375 37.3099,5.06771 37.7422,5.51563 C38.1745,5.96354 38.3906,6.64583 38.3906,7.5625 M44.25,5.15625 L44.25,6.09375 C43.9688,5.94792 43.6771,5.84115 43.375,5.77344 C43.0729,5.70573 42.7604,5.67188 42.4375,5.67188 C41.9479,5.67188 41.5807,5.7474 41.3359,5.89844 C41.0911,6.04948 40.9688,6.27083 40.9688,6.5625 C40.9688,6.79167 41.0573,6.97135 41.2344,7.10156 C41.4115,7.23177 41.7656,7.35938 42.2969,7.48438 L42.625,7.5625 C43.3333,7.70833 43.8359,7.91927 44.1328,8.19531 C44.4297,8.47135 44.5781,8.85417 44.5781,9.34375 C44.5781,9.89583 44.3568,10.3359 43.9141,10.6641 C43.4714,10.9922 42.8594,11.1563 42.0781,11.1563 C41.7552,11.1563 41.4193,11.125 41.0703,11.0625 C40.7214,11 40.3542,10.9063 39.9688,10.7813 L39.9688,9.76563 C40.3333,9.95313 40.6927,10.0938 41.0469,10.1875 C41.401,10.2813 41.7552,10.3281 42.1094,10.3281 C42.5677,10.3281 42.9245,10.2474 43.1797,10.0859 C43.4349,9.92448 43.5625,9.70313 43.5625,9.42188 C43.5625,9.15104 43.4714,8.94271 43.2891,8.79688 C43.1068,8.65104 42.7083,8.51563 42.0938,8.39063 L41.75,8.29688 C41.1354,8.17188 40.6927,7.97656 40.4219,7.71094 C40.151,7.44531 40.0156,7.07813 40.0156,6.60938 C40.0156,6.04688 40.2161,5.61198 40.6172,5.30469 C41.0182,4.9974 41.5885,4.84375 42.3281,4.84375 C42.6927,4.84375 43.0365,4.86979 43.3594,4.92188 C43.6823,4.97396 43.9792,5.05208 44.25,5.15625 M46.0938,2.64063 L47.0938,2.64063 L47.0938,7.57813 L50.0313,4.98438 L51.2969,4.98438 L48.1094,7.79688 L51.4375,11 L50.1406,11 L47.0938,8.0625 L47.0938,11 L46.0938,11 L46.0938,2.64063"/>
</g>

<g fill="none" stroke="#000000" stroke-opacity="1" stroke-width="1" stroke-linecap="square" stroke-linejoin="bevel" transform="matrix(1.99949,0,0,1.99949,715.923,21.9943)"
font-family="sans" font-size="11" font-weight="100" font-style="normal" 
>
</g>

<g fill="none" stroke="#000000" stroke-opacity="1" stroke-width="1" stroke-linecap="square" stroke-linejoin="bevel" transform="matrix(1.99949,0,0,1.99949,715.923,21.9943)"
font-family="Sans Serif" font-size="9" font-weight="400" font-style="normal" 
>
</g>

<g fill="none" stroke="#000000" stroke-opacity="1" stroke-width="1" stroke-linecap="square" stroke-linejoin="bevel" transform="matrix(1.99949,0,0,1.99949,1.42072e-14,71.9815)"
font-family="Sans Serif" font-size="9" font-weight="400" font-style="normal" 
>
</g>

<g fill="none" stroke="#000000" stroke-opacity="1" stroke-width="1" stroke-linecap="square" stroke-linejoin="bevel" transform="matrix(1.99949,0,0,1.99949,1.42072e-14,71.9815)"
font-family="Sans Serif" font-size="9" font-weight="400" font-style="normal" 
>
</g>

<g fill="none" stroke="#000000" stroke-opacity="1" stroke-width="1" stroke-linecap="square" stroke-linejoin="bevel" transform="matrix(1.99949,0,0,1.99949,1.42072e-14,71.9815)"
font-family="Sans Serif" font-size="9" font-weight="400" font-style="normal" 
>
</g>

<g fill="none" stroke="#000000" stroke-opacity="1" stroke-width="1" stroke-linecap="square" stroke-linejoin="round" transform="matrix(1.99949,0,0,1.99949,1.42072e-14,71.9815)"
font-family="Sans Serif" font-size="9" font-weight="400" font-style="normal" 
>
<ellipse cx="533.22" cy="-18" rx="92.4412" ry="17.5"/>
</g>

<g fill="none" stroke="#000000" stroke-opacity="1" stroke-width="1" stroke-linecap="square" stroke-linejoin="bevel" transform="matrix(1.99949,0,0,1.99949,1.42072e-14,71.9815)"
font-family="Sans Serif" font-size="9" font-weight="400" font-style="normal" 
>
</g>

<g fill="none" stroke="#000000" stroke-opacity="1" stroke-width="1" stroke-linecap="square" stroke-linejoin="bevel" transform="matrix(1.99949,0,0,1.99949,968.034,21.9943)"
font-family="Sans Serif" font-size="9" font-weight="400" font-style="normal" 
>
</g>

<g fill="none" stroke="#000000" stroke-opacity="1" stroke-width="1" stroke-linecap="square" stroke-linejoin="bevel" transform="matrix(1.99949,0,0,1.99949,968.034,21.9943)"
font-family="sans" font-size="11" font-weight="100" font-style="normal" 
>
</g>

<g fill="#000000" fill-opacity="1" stroke="#000000" stroke-opacity="1" stroke-width="1" stroke-linecap="square" stroke-linejoin="round" transform="matrix(1.99949,0,0,1.99949,968.034,21.9943)"
font-family="sans" font-size="11" font-weight="100" font-style="normal" 
>
<path vector-effect="none" fill-rule="nonzero" d="M2.79688,2.98438 L3.70313,2.98438 L0.921875,12.0156 L0,12.0156 L2.79688,2.98438 M9.42188,6.14063 C9.67188,5.69271 9.96875,5.36458 10.3125,5.15625 C10.6563,4.94792 11.0625,4.84375 11.5313,4.84375 C12.1563,4.84375 12.638,5.0625 12.9766,5.5 C13.3151,5.9375 13.4844,6.5625 13.4844,7.375 L13.4844,11 L12.5,11 L12.5,7.40625 C12.5,6.82292 12.3958,6.39323 12.1875,6.11719 C11.9792,5.84115 11.6667,5.70313 11.25,5.70313 C10.7396,5.70313 10.3359,5.8724 10.0391,6.21094 C9.74219,6.54948 9.59375,7.01042 9.59375,7.59375 L9.59375,11 L8.59375,11 L8.59375,7.40625 C8.59375,6.82292 8.49219,6.39323 8.28906,6.11719 C8.08594,5.84115 7.77083,5.70313 7.34375,5.70313 C6.84375,5.70313 6.44531,5.8724 6.14844,6.21094 C5.85156,6.54948 5.70313,7.01042 5.70313,7.59375 L5.70313,11 L4.70313,11 L4.70313,4.98438 L5.70313,4.98438 L5.70313,5.92188 C5.92188,5.54688 6.1901,5.27344 6.50781,5.10156 C6.82552,4.92969 7.19792,4.84375 7.625,4.84375 C8.0625,4.84375 8.4349,4.95313 8.74219,5.17188 C9.04948,5.39063 9.27604,5.71354 9.42188,6.14063 M18.1719,7.96875 C17.3802,7.96875 16.8307,8.0625 16.5234,8.25 C16.2161,8.4375 16.0625,8.75 16.0625,9.1875 C16.0625,9.53125 16.1771,9.80729 16.4063,10.0156 C16.6354,10.224 16.9479,10.3281 17.3438,10.3281 C17.8958,10.3281 18.3359,10.1328 18.6641,9.74219 C18.9922,9.35156 19.1563,8.83854 19.1563,8.20313 L19.1563,7.96875 L18.1719,7.96875 M20.1563,7.5625 L20.1563,11 L19.1563,11 L19.1563,10.0938 C18.9375,10.4583 18.6589,10.7266 18.3203,10.8984 C17.9818,11.0703 17.5677,11.1563 17.0781,11.1563 C16.4635,11.1563 15.974,10.9844 15.6094,10.6406 C15.2448,10.2969 15.0625,9.83333 15.0625,9.25 C15.0625,8.57292 15.2891,8.0625 15.7422,7.71875 C16.1953,7.375 16.875,7.20313 17.7813,7.20313 L19.1563,7.20313 L19.1563,7.10938 C19.1563,6.65104 19.0078,6.29688 18.7109,6.04688 C18.4141,5.79688 17.9948,5.67188 17.4531,5.67188 C17.1094,5.67188 16.776,5.71354 16.4531,5.79688 C16.1302,5.88021 15.8177,6.00521 15.5156,6.17188 L15.5156,5.26563 C15.8698,5.11979 16.2188,5.01302 16.5625,4.94531 C16.9063,4.8776 17.2396,4.84375 17.5625,4.84375 C18.4271,4.84375 19.0755,5.06771 19.5078,5.51563 C19.9401,5.96354 20.1563,6.64583 20.1563,7.5625 M26.0156,5.15625 L26.0156,6.09375 C25.7344,5.94792 25.4427,5.84115 25.1406,5.77344 C24.8385,5.70573 24.526,5.67188 24.2031,5.67188 C23.7135,5.67188 23.3464,5.7474 23.1016,5.89844 C22.8568,6.04948 22.7344,6.27083 22.7344,6.5625 C22.7344,6.79167 22.8229,6.97135 23,7.10156 C23.1771,7.23177 23.5313,7.35938 24.0625,7.48438 L24.3906,7.5625 C25.099,7.70833 25.6016,7.91927 25.8984,8.19531 C26.1953,8.47135 26.3438,8.85417 26.3438,9.34375 C26.3438,9.89583 26.1224,10.3359 25.6797,10.6641 C25.237,10.9922 24.625,11.1563 23.8438,11.1563 C23.5208,11.1563 23.1849,11.125 22.8359,11.0625 C22.487,11 22.1198,10.9063 21.7344,10.7813 L21.7344,9.76563 C22.099,9.95313 22.4583,10.0938 22.8125,10.1875 C23.1667,10.2813 23.5208,10.3281 23.875,10.3281 C24.3333,10.3281 24.6901,10.2474 24.9453,10.0859 C25.2005,9.92448 25.3281,9.70313 25.3281,9.42188 C25.3281,9.15104 25.237,8.94271 25.0547,8.79688 C24.8724,8.65104 24.474,8.51563 23.8594,8.39063 L23.5156,8.29688 C22.901,8.17188 22.4583,7.97656 22.1875,7.71094 C21.9167,7.44531 21.7813,7.07813 21.7813,6.60938 C21.7813,6.04688 21.9818,5.61198 22.3828,5.30469 C22.7839,4.9974 23.3542,4.84375 24.0938,4.84375 C24.4583,4.84375 24.8021,4.86979 25.125,4.92188 C25.4479,4.97396 25.7448,5.05208 26.0156,5.15625 M27.8594,2.64063 L28.8594,2.64063 L28.8594,7.57813 L31.7969,4.98438 L33.0625,4.98438 L29.875,7.79688 L33.2031,11 L31.9063,11 L28.8594,8.0625 L28.8594,11 L27.8594,11 L27.8594,2.64063 M38.8281,12.8281 L38.8281,13.5938 L33.1094,13.5938 L33.1094,12.8281 L38.8281,12.8281 M40.7188,10.0938 L40.7188,13.2813 L39.7188,13.2813 L39.7188,4.98438 L40.7188,4.98438 L40.7188,5.89063 C40.9271,5.53646 41.1875,5.27344 41.5,5.10156 C41.8125,4.92969 42.1927,4.84375 42.6406,4.84375 C43.3698,4.84375 43.9635,5.13281 44.4219,5.71094 C44.8802,6.28906 45.1094,7.05208 45.1094,8 C45.1094,8.94792 44.8802,9.71094 44.4219,10.2891 C43.9635,10.8672 43.3698,11.1563 42.6406,11.1563 C42.1927,11.1563 41.8125,11.0703 41.5,10.8984 C41.1875,10.7266 40.9271,10.4583 40.7188,10.0938 M44.0781,8 C44.0781,7.27083 43.9271,6.70052 43.625,6.28906 C43.3229,5.8776 42.9115,5.67188 42.3906,5.67188 C41.8698,5.67188 41.4609,5.8776 41.1641,6.28906 C40.8672,6.70052 40.7188,7.27083 40.7188,8 C40.7188,8.72917 40.8672,9.29948 41.1641,9.71094 C41.4609,10.1224 41.8698,10.3281 42.3906,10.3281 C42.9115,10.3281 43.3229,10.1224 43.625,9.71094 C43.9271,9.29948 44.0781,8.72917 44.0781,8 M50.2188,5.90625 C50.1042,5.84375 49.9818,5.79688 49.8516,5.76563 C49.7214,5.73438 49.5781,5.71875 49.4219,5.71875 C48.8594,5.71875 48.4297,5.90104 48.1328,6.26563 C47.8359,6.63021 47.6875,7.15104 47.6875,7.82813 L47.6875,11 L46.6875,11 L46.6875,4.98438 L47.6875,4.98438 L47.6875,5.92188 C47.8958,5.55729 48.1667,5.28646 48.5,5.10938 C48.8333,4.93229 49.2344,4.84375 49.7031,4.84375 C49.776,4.84375 49.8542,4.84635 49.9375,4.85156 C50.0208,4.85677 50.1094,4.86979 50.2031,4.89063 L50.2188,5.90625 M53.5781,5.67188 C53.0469,5.67188 52.6276,5.88021 52.3203,6.29688 C52.013,6.71354 51.8594,7.28125 51.8594,8 C51.8594,8.71875 52.0104,9.28385 52.3125,9.69531 C52.6146,10.1068 53.0365,10.3125 53.5781,10.3125 C54.099,10.3125 54.513,10.1068 54.8203,9.69531 C55.1276,9.28385 55.2813,8.71875 55.2813,8 C55.2813,7.28125 55.1276,6.71354 54.8203,6.29688 C54.513,5.88021 54.099,5.67188 53.5781,5.67188 M53.5781,4.84375 C54.4323,4.84375 55.1042,5.1224 55.5938,5.67969 C56.0833,6.23698 56.3281,7.01042 56.3281,8 C56.3281,8.97917 56.0833,9.75 55.5938,10.3125 C55.1042,10.875 54.4323,11.1563 53.5781,11.1563 C52.7135,11.1563 52.0365,10.875 51.5469,10.3125 C51.0573,9.75 50.8125,8.97917 50.8125,8 C50.8125,7.01042 51.0573,6.23698 51.5469,5.67969 C52.0365,5.1224 52.7135,4.84375 53.5781,4.84375 M62.2969,5.21875 L62.2969,6.14063 C62.0156,5.98438 61.7344,5.86719 61.4531,5.78906 C61.1719,5.71094 60.8854,5.67188 60.5938,5.67188 C59.9583,5.67188 59.4635,5.875 59.1094,6.28125 C58.7552,6.6875 58.5781,7.26042 58.5781,8 C58.5781,8.72917 58.7552,9.29688 59.1094,9.70313 C59.4635,10.1094 59.9583,10.3125 60.5938,10.3125 C60.8854,10.3125 61.1719,10.276 61.4531,10.2031 C61.7344,10.1302 62.0156,10.0156 62.2969,9.85938 L62.2969,10.7656 C62.0156,10.901 61.7266,11 61.4297,11.0625 C61.1328,11.125 60.8177,11.1563 60.4844,11.1563 C59.5781,11.1563 58.8594,10.8724 58.3281,10.3047 C57.7969,9.73698 57.5313,8.96875 57.5313,8 C57.5313,7.02083 57.7995,6.25 58.3359,5.6875 C58.8724,5.125 59.6146,4.84375 60.5625,4.84375 C60.8646,4.84375 61.1589,4.875 61.4453,4.9375 C61.7318,5 62.0156,5.09375 62.2969,5.21875 M69.1563,7.75 L69.1563,8.23438 L64.6094,8.23438 C64.651,8.91146 64.8568,9.42708 65.2266,9.78125 C65.5964,10.1354 66.1094,10.3125 66.7656,10.3125 C67.1406,10.3125 67.5052,10.2656 67.8594,10.1719 C68.2135,10.0781 68.5677,9.94271 68.9219,9.76563 L68.9219,10.6875 C68.5677,10.8438 68.2057,10.9609 67.8359,11.0391 C67.4661,11.1172 67.0885,11.1563 66.7031,11.1563 C65.7448,11.1563 64.9844,10.8776 64.4219,10.3203 C63.8594,9.76302 63.5781,9.00521 63.5781,8.04688 C63.5781,7.06771 63.8438,6.28906 64.375,5.71094 C64.9063,5.13281 65.625,4.84375 66.5313,4.84375 C67.3333,4.84375 67.9714,5.10417 68.4453,5.625 C68.9193,6.14583 69.1563,6.85417 69.1563,7.75 M68.1719,7.45313 C68.1615,6.91146 68.0078,6.47917 67.7109,6.15625 C67.4141,5.83333 67.0208,5.67188 66.5313,5.67188 C65.9792,5.67188 65.5391,5.82813 65.2109,6.14063 C64.8828,6.45313 64.6927,6.89063 64.6406,7.45313 L68.1719,7.45313 M74.6094,5.15625 L74.6094,6.09375 C74.3281,5.94792 74.0365,5.84115 73.7344,5.77344 C73.4323,5.70573 73.1198,5.67188 72.7969,5.67188 C72.3073,5.67188 71.9401,5.7474 71.6953,5.89844 C71.4505,6.04948 71.3281,6.27083 71.3281,6.5625 C71.3281,6.79167 71.4167,6.97135 71.5938,7.10156 C71.7708,7.23177 72.125,7.35938 72.6563,7.48438 L72.9844,7.5625 C73.6927,7.70833 74.1953,7.91927 74.4922,8.19531 C74.7891,8.47135 74.9375,8.85417 74.9375,9.34375 C74.9375,9.89583 74.7161,10.3359 74.2734,10.6641 C73.8307,10.9922 73.2188,11.1563 72.4375,11.1563 C72.1146,11.1563 71.7786,11.125 71.4297,11.0625 C71.0807,11 70.7135,10.9063 70.3281,10.7813 L70.3281,9.76563 C70.6927,9.95313 71.0521,10.0938 71.4063,10.1875 C71.7604,10.2813 72.1146,10.3281 72.4688,10.3281 C72.9271,10.3281 73.2839,10.2474 73.5391,10.0859 C73.7943,9.92448 73.9219,9.70313 73.9219,9.42188 C73.9219,9.15104 73.8307,8.94271 73.6484,8.79688 C73.4661,8.65104 73.0677,8.51563 72.4531,8.39063 L72.1094,8.29688 C71.4948,8.17188 71.0521,7.97656 70.7813,7.71094 C70.5104,7.44531 70.375,7.07813 70.375,6.60938 C70.375,6.04688 70.5755,5.61198 70.9766,5.30469 C71.3776,4.9974 71.9479,4.84375 72.6875,4.84375 C73.0521,4.84375 73.3958,4.86979 73.7188,4.92188 C74.0417,4.97396 74.3385,5.05208 74.6094,5.15625 M80.3281,5.15625 L80.3281,6.09375 C80.0469,5.94792 79.7552,5.84115 79.4531,5.77344 C79.151,5.70573 78.8385,5.67188 78.5156,5.67188 C78.026,5.67188 77.6589,5.7474 77.4141,5.89844 C77.1693,6.04948 77.0469,6.27083 77.0469,6.5625 C77.0469,6.79167 77.1354,6.97135 77.3125,7.10156 C77.4896,7.23177 77.8438,7.35938 78.375,7.48438 L78.7031,7.5625 C79.4115,7.70833 79.9141,7.91927 80.2109,8.19531 C80.5078,8.47135 80.6563,8.85417 80.6563,9.34375 C80.6563,9.89583 80.4349,10.3359 79.9922,10.6641 C79.5495,10.9922 78.9375,11.1563 78.1563,11.1563 C77.8333,11.1563 77.4974,11.125 77.1484,11.0625 C76.7995,11 76.4323,10.9063 76.0469,10.7813 L76.0469,9.76563 C76.4115,9.95313 76.7708,10.0938 77.125,10.1875 C77.4792,10.2813 77.8333,10.3281 78.1875,10.3281 C78.6458,10.3281 79.0026,10.2474 79.2578,10.0859 C79.513,9.92448 79.6406,9.70313 79.6406,9.42188 C79.6406,9.15104 79.5495,8.94271 79.3672,8.79688 C79.1849,8.65104 78.7865,8.51563 78.1719,8.39063 L77.8281,8.29688 C77.2135,8.17188 76.7708,7.97656 76.5,7.71094 C76.2292,7.44531 76.0938,7.07813 76.0938,6.60938 C76.0938,6.04688 76.2943,5.61198 76.6953,5.30469 C77.0964,4.9974 77.6667,4.84375 78.4063,4.84375 C78.7708,4.84375 79.1146,4.86979 79.4375,4.92188 C79.7604,4.97396 80.0573,5.05208 80.3281,5.15625 M82.2188,4.98438 L83.2031,4.98438 L83.2031,11 L82.2188,11 L82.2188,4.98438 M82.2188,2.64063 L83.2031,2.64063 L83.2031,3.89063 L82.2188,3.89063 L82.2188,2.64063 M90.2656,7.375 L90.2656,11 L89.2656,11 L89.2656,7.40625 C89.2656,6.83333 89.1563,6.40625 88.9375,6.125 C88.7188,5.84375 88.3854,5.70313 87.9375,5.70313 C87.4063,5.70313 86.987,5.8724 86.6797,6.21094 C86.3724,6.54948 86.2188,7.01042 86.2188,7.59375 L86.2188,11 L85.2188,11 L85.2188,4.98438 L86.2188,4.98438 L86.2188,5.92188 C86.4479,5.55729 86.724,5.28646 87.0469,5.10938 C87.3698,4.93229 87.7396,4.84375 88.1563,4.84375 C88.8438,4.84375 89.3672,5.05729 89.7266,5.48438 C90.0859,5.91146 90.2656,6.54167 90.2656,7.375 M96.1875,7.92188 C96.1875,7.20313 96.0391,6.64844 95.7422,6.25781 C95.4453,5.86719 95.0313,5.67188 94.5,5.67188 C93.9688,5.67188 93.5547,5.86719 93.2578,6.25781 C92.9609,6.64844 92.8125,7.20313 92.8125,7.92188 C92.8125,8.63021 92.9609,9.18229 93.2578,9.57813 C93.5547,9.97396 93.9688,10.1719 94.5,10.1719 C95.0313,10.1719 95.4453,9.97396 95.7422,9.57813 C96.0391,9.18229 96.1875,8.63021 96.1875,7.92188 M97.1719,10.25 C97.1719,11.2813 96.9453,12.0443 96.4922,12.5391 C96.0391,13.0339 95.3438,13.2813 94.4063,13.2813 C94.0521,13.2813 93.7214,13.2552 93.4141,13.2031 C93.1068,13.151 92.8073,13.0729 92.5156,12.9688 L92.5156,12.0156 C92.8073,12.1719 93.0964,12.2865 93.3828,12.3594 C93.6693,12.4323 93.9583,12.4688 94.25,12.4688 C94.8958,12.4688 95.3802,12.2995 95.7031,11.9609 C96.026,11.6224 96.1875,11.1146 96.1875,10.4375 L96.1875,9.9375 C95.9792,10.2917 95.7161,10.5573 95.3984,10.7344 C95.0807,10.9115 94.6979,11 94.25,11 C93.5208,11 92.9297,10.7188 92.4766,10.1563 C92.0234,9.59375 91.7969,8.84896 91.7969,7.92188 C91.7969,6.99479 92.0234,6.25 92.4766,5.6875 C92.9297,5.125 93.5208,4.84375 94.25,4.84375 C94.6979,4.84375 95.0807,4.92969 95.3984,5.10156 C95.7161,5.27344 95.9792,5.53646 96.1875,5.89063 L96.1875,4.98438 L97.1719,4.98438 L97.1719,10.25"/>
</g>

<g fill="none" stroke="#000000" stroke-opacity="1" stroke-width="1" stroke-linecap="square" stroke-linejoin="bevel" transform="matrix(1.99949,0,0,1.99949,968.034,21.9943)"
font-family="sans" font-size="11" font-weight="100" font-style="normal" 
>
</g>

<g fill="none" stroke="#000000" stroke-opacity="1" stroke-width="1" stroke-linecap="square" stroke-linejoin="bevel" transform="matrix(1.99949,0,0,1.99949,968.034,21.9943)"
font-family="Sans Serif" font-size="9" font-weight="400" font-style="normal" 
>
</g>

<g fill="none" stroke="#000000" stroke-opacity="1" stroke-width="1" stroke-linecap="square" stroke-linejoin="bevel" transform="matrix(1.99949,0,0,1.99949,1.42072e-14,71.9815)"
font-family="Sans Serif" font-size="9" font-weight="400" font-style="normal" 
>
</g>

<g fill="none" stroke="#000000" stroke-opacity="1" stroke-width="1" stroke-linecap="square" stroke-linejoin="bevel" transform="matrix(1.99949,0,0,1.99949,1.42072e-14,71.9815)"
font-family="Sans Serif" font-size="9" font-weight="400" font-style="normal" 
>
</g>

<g fill="none" stroke="#000000" stroke-opacity="1" stroke-width="1" stroke-linecap="square" stroke-linejoin="bevel" transform="matrix(1.99949,0,0,1.99949,1.42072e-14,71.9815)"
font-family="Sans Serif" font-size="9" font-weight="400" font-style="normal" 
>
</g>

<g fill="none" stroke="#000000" stroke-opacity="1" stroke-width="1" stroke-linecap="square" stroke-linejoin="round" transform="matrix(1.99949,0,0,1.99949,1.42072e-14,71.9815)"
font-family="Sans Serif" font-size="9" font-weight="400" font-style="normal" 
>
<ellipse cx="48.096" cy="-18" rx="47.596" ry="17.5"/>
</g>

<g fill="none" stroke="#000000" stroke-opacity="1" stroke-width="1" stroke-linecap="square" stroke-linejoin="bevel" transform="matrix(1.99949,0,0,1.99949,1.42072e-14,71.9815)"
font-family="Sans Serif" font-size="9" font-weight="400" font-style="normal" 
>
</g>

<g fill="none" stroke="#000000" stroke-opacity="1" stroke-width="1" stroke-linecap="square" stroke-linejoin="bevel" transform="matrix(1.99949,0,0,1.99949,50.9757,21.9943)"
font-family="Sans Serif" font-size="9" font-weight="400" font-style="normal" 
>
</g>

<g fill="none" stroke="#000000" stroke-opacity="1" stroke-width="1" stroke-linecap="square" stroke-linejoin="bevel" transform="matrix(1.99949,0,0,1.99949,50.9757,21.9943)"
font-family="sans" font-size="11" font-weight="100" font-style="normal" 
>
</g>

<g fill="#000000" fill-opacity="1" stroke="#000000" stroke-opacity="1" stroke-width="1" stroke-linecap="square" stroke-linejoin="round" transform="matrix(1.99949,0,0,1.99949,50.9757,21.9943)"
font-family="sans" font-size="11" font-weight="100" font-style="normal" 
>
<path vector-effect="none" fill-rule="nonzero" d="M2.79688,2.98438 L3.70313,2.98438 L0.921875,12.0156 L0,12.0156 L2.79688,2.98438 M9.07813,5.21875 L9.07813,6.14063 C8.79688,5.98438 8.51563,5.86719 8.23438,5.78906 C7.95313,5.71094 7.66667,5.67188 7.375,5.67188 C6.73958,5.67188 6.24479,5.875 5.89063,6.28125 C5.53646,6.6875 5.35938,7.26042 5.35938,8 C5.35938,8.72917 5.53646,9.29688 5.89063,9.70313 C6.24479,10.1094 6.73958,10.3125 7.375,10.3125 C7.66667,10.3125 7.95313,10.276 8.23438,10.2031 C8.51563,10.1302 8.79688,10.0156 9.07813,9.85938 L9.07813,10.7656 C8.79688,10.901 8.50781,11 8.21094,11.0625 C7.91406,11.125 7.59896,11.1563 7.26563,11.1563 C6.35938,11.1563 5.64063,10.8724 5.10938,10.3047 C4.57813,9.73698 4.3125,8.96875 4.3125,8 C4.3125,7.02083 4.58073,6.25 5.11719,5.6875 C5.65365,5.125 6.39583,4.84375 7.34375,4.84375 C7.64583,4.84375 7.9401,4.875 8.22656,4.9375 C8.51302,5 8.79688,5.09375 9.07813,5.21875 M13.5156,7.96875 C12.724,7.96875 12.1745,8.0625 11.8672,8.25 C11.5599,8.4375 11.4063,8.75 11.4063,9.1875 C11.4063,9.53125 11.5208,9.80729 11.75,10.0156 C11.9792,10.224 12.2917,10.3281 12.6875,10.3281 C13.2396,10.3281 13.6797,10.1328 14.0078,9.74219 C14.3359,9.35156 14.5,8.83854 14.5,8.20313 L14.5,7.96875 L13.5156,7.96875 M15.5,7.5625 L15.5,11 L14.5,11 L14.5,10.0938 C14.2813,10.4583 14.0026,10.7266 13.6641,10.8984 C13.3255,11.0703 12.9115,11.1563 12.4219,11.1563 C11.8073,11.1563 11.3177,10.9844 10.9531,10.6406 C10.5885,10.2969 10.4063,9.83333 10.4063,9.25 C10.4063,8.57292 10.6328,8.0625 11.0859,7.71875 C11.5391,7.375 12.2188,7.20313 13.125,7.20313 L14.5,7.20313 L14.5,7.10938 C14.5,6.65104 14.3516,6.29688 14.0547,6.04688 C13.7578,5.79688 13.3385,5.67188 12.7969,5.67188 C12.4531,5.67188 12.1198,5.71354 11.7969,5.79688 C11.474,5.88021 11.1615,6.00521 10.8594,6.17188 L10.8594,5.26563 C11.2135,5.11979 11.5625,5.01302 11.9063,4.94531 C12.25,4.8776 12.5833,4.84375 12.9063,4.84375 C13.7708,4.84375 14.4193,5.06771 14.8516,5.51563 C15.2839,5.96354 15.5,6.64583 15.5,7.5625 M22.2031,6.14063 C22.4531,5.69271 22.75,5.36458 23.0938,5.15625 C23.4375,4.94792 23.8438,4.84375 24.3125,4.84375 C24.9375,4.84375 25.4193,5.0625 25.7578,5.5 C26.0964,5.9375 26.2656,6.5625 26.2656,7.375 L26.2656,11 L25.2813,11 L25.2813,7.40625 C25.2813,6.82292 25.1771,6.39323 24.9688,6.11719 C24.7604,5.84115 24.4479,5.70313 24.0313,5.70313 C23.5208,5.70313 23.1172,5.8724 22.8203,6.21094 C22.5234,6.54948 22.375,7.01042 22.375,7.59375 L22.375,11 L21.375,11 L21.375,7.40625 C21.375,6.82292 21.2734,6.39323 21.0703,6.11719 C20.8672,5.84115 20.5521,5.70313 20.125,5.70313 C19.625,5.70313 19.2266,5.8724 18.9297,6.21094 C18.6328,6.54948 18.4844,7.01042 18.4844,7.59375 L18.4844,11 L17.4844,11 L17.4844,4.98438 L18.4844,4.98438 L18.4844,5.92188 C18.7031,5.54688 18.9714,5.27344 19.2891,5.10156 C19.6068,4.92969 19.9792,4.84375 20.4063,4.84375 C20.8438,4.84375 21.2161,4.95313 21.5234,5.17188 C21.8307,5.39063 22.0573,5.71354 22.2031,6.14063 M33.375,7.75 L33.375,8.23438 L28.8281,8.23438 C28.8698,8.91146 29.0755,9.42708 29.4453,9.78125 C29.8151,10.1354 30.3281,10.3125 30.9844,10.3125 C31.3594,10.3125 31.724,10.2656 32.0781,10.1719 C32.4323,10.0781 32.7865,9.94271 33.1406,9.76563 L33.1406,10.6875 C32.7865,10.8438 32.4245,10.9609 32.0547,11.0391 C31.6849,11.1172 31.3073,11.1563 30.9219,11.1563 C29.9635,11.1563 29.2031,10.8776 28.6406,10.3203 C28.0781,9.76302 27.7969,9.00521 27.7969,8.04688 C27.7969,7.06771 28.0625,6.28906 28.5938,5.71094 C29.125,5.13281 29.8438,4.84375 30.75,4.84375 C31.5521,4.84375 32.1901,5.10417 32.6641,5.625 C33.138,6.14583 33.375,6.85417 33.375,7.75 M32.3906,7.45313 C32.3802,6.91146 32.2266,6.47917 31.9297,6.15625 C31.6328,5.83333 31.2396,5.67188 30.75,5.67188 C30.1979,5.67188 29.7578,5.82813 29.4297,6.14063 C29.1016,6.45313 28.9115,6.89063 28.8594,7.45313 L32.3906,7.45313 M38.4844,5.90625 C38.3698,5.84375 38.2474,5.79688 38.1172,5.76563 C37.987,5.73438 37.8438,5.71875 37.6875,5.71875 C37.125,5.71875 36.6953,5.90104 36.3984,6.26563 C36.1016,6.63021 35.9531,7.15104 35.9531,7.82813 L35.9531,11 L34.9531,11 L34.9531,4.98438 L35.9531,4.98438 L35.9531,5.92188 C36.1615,5.55729 36.4323,5.28646 36.7656,5.10938 C37.099,4.93229 37.5,4.84375 37.9688,4.84375 C38.0417,4.84375 38.1198,4.84635 38.2031,4.85156 C38.2865,4.85677 38.375,4.86979 38.4688,4.89063 L38.4844,5.90625 M42.2344,7.96875 C41.4427,7.96875 40.8932,8.0625 40.5859,8.25 C40.2786,8.4375 40.125,8.75 40.125,9.1875 C40.125,9.53125 40.2396,9.80729 40.4688,10.0156 C40.6979,10.224 41.0104,10.3281 41.4063,10.3281 C41.9583,10.3281 42.3984,10.1328 42.7266,9.74219 C43.0547,9.35156 43.2188,8.83854 43.2188,8.20313 L43.2188,7.96875 L42.2344,7.96875 M44.2188,7.5625 L44.2188,11 L43.2188,11 L43.2188,10.0938 C43,10.4583 42.7214,10.7266 42.3828,10.8984 C42.0443,11.0703 41.6302,11.1563 41.1406,11.1563 C40.526,11.1563 40.0365,10.9844 39.6719,10.6406 C39.3073,10.2969 39.125,9.83333 39.125,9.25 C39.125,8.57292 39.3516,8.0625 39.8047,7.71875 C40.2578,7.375 40.9375,7.20313 41.8438,7.20313 L43.2188,7.20313 L43.2188,7.10938 C43.2188,6.65104 43.0703,6.29688 42.7734,6.04688 C42.4766,5.79688 42.0573,5.67188 41.5156,5.67188 C41.1719,5.67188 40.8385,5.71354 40.5156,5.79688 C40.1927,5.88021 39.8802,6.00521 39.5781,6.17188 L39.5781,5.26563 C39.9323,5.11979 40.2813,5.01302 40.625,4.94531 C40.9688,4.8776 41.3021,4.84375 41.625,4.84375 C42.4896,4.84375 43.138,5.06771 43.5703,5.51563 C44.0026,5.96354 44.2188,6.64583 44.2188,7.5625 "/>
</g>

<g fill="none" stroke="#000000" stroke-opacity="1" stroke-width="1" stroke-linecap="square" stroke-linejoin="bevel" transform="matrix(1.99949,0,0,1.99949,50.9757,21.9943)"
font-family="sans" font-size="11" font-weight="100" font-style="normal" 
>
</g>

<g fill="none" stroke="#000000" stroke-opacity="1" stroke-width="1" stroke-linecap="square" stroke-linejoin="bevel" transform="matrix(1.99949,0,0,1.99949,50.9757,21.9943)"
font-family="Sans Serif" font-size="9" font-weight="400" font-style="normal" 
>
</g>

<g fill="none" stroke="#000000" stroke-opacity="1" stroke-width="1" stroke-linecap="square" stroke-linejoin="bevel" transform="matrix(1.99949,0,0,1.99949,1.42072e-14,71.9815)"
font-family="Sans Serif" font-size="9" font-weight="400" font-style="normal" 
>
</g>

<g fill="none" stroke="#000000" stroke-opacity="1" stroke-width="1" stroke-linecap="square" stroke-linejoin="bevel" transform="matrix(1.99949,0,0,1.99949,1.42072e-14,71.9815)"
font-family="Sans Serif" font-size="9" font-weight="400" font-style="normal" 
>
</g>

<g fill="none" stroke="#000000" stroke-opacity="1" stroke-width="1" stroke-linecap="square" stroke-linejoin="bevel" transform="matrix(1.99949,0,0,1.99949,1.42072e-14,71.9815)"
font-family="Sans Serif" font-size="9" font-weight="400" font-style="normal" 
>
</g>

<g fill="none" stroke="#000000" stroke-opacity="1" stroke-width="1" stroke-linecap="square" stroke-linejoin="round" transform="matrix(1.99949,0,0,1.99949,1.42072e-14,71.9815)"
font-family="Sans Serif" font-size="9" font-weight="400" font-style="normal" 
>
<path vector-effect="none" fill-rule="evenodd" d="M175.46,-18 C176.55,-18 177.65,-18 178.77,-18 "/>
</g>

<g fill="none" stroke="#000000" stroke-opacity="1" stroke-width="1" stroke-linecap="square" stroke-linejoin="bevel" transform="matrix(1.99949,0,0,1.99949,1.42072e-14,71.9815)"
font-family="Sans Serif" font-size="9" font-weight="400" font-style="normal" 
>
</g>

<g fill="none" stroke="#000000" stroke-opacity="1" stroke-width="1" stroke-linecap="square" stroke-linejoin="bevel" transform="matrix(1.99949,0,0,1.99949,1.42072e-14,71.9815)"
font-family="Sans Serif" font-size="9" font-weight="400" font-style="normal" 
>
</g>

<g fill="#000000" fill-opacity="1" stroke="#000000" stroke-opacity="1" stroke-width="1" stroke-linecap="square" stroke-linejoin="round" transform="matrix(1.99949,0,0,1.99949,1.42072e-14,71.9815)"
font-family="Sans Serif" font-size="9" font-weight="400" font-style="normal" 
>
<path vector-effect="none" fill-rule="evenodd" d="M178.77,-18 L178.77,-14.381 L189.11,-18 L178.77,-21.619 L178.77,-18"/>
</g>

<g fill="none" stroke="#000000" stroke-opacity="1" stroke-width="1" stroke-linecap="square" stroke-linejoin="bevel" transform="matrix(1.99949,0,0,1.99949,1.42072e-14,71.9815)"
font-family="Sans Serif" font-size="9" font-weight="400" font-style="normal" 
>
</g>

<g fill="none" stroke="#000000" stroke-opacity="1" stroke-width="1" stroke-linecap="square" stroke-linejoin="bevel" transform="matrix(1.99949,0,0,1.99949,1.42072e-14,71.9815)"
font-family="Sans Serif" font-size="9" font-weight="400" font-style="normal" 
>
</g>

<g fill="none" stroke="#000000" stroke-opacity="1" stroke-width="1" stroke-linecap="square" stroke-linejoin="bevel" transform="matrix(1.99949,0,0,1.99949,1.42072e-14,71.9815)"
font-family="Sans Serif" font-size="9" font-weight="400" font-style="normal" 
>
</g>

<g fill="none" stroke="#000000" stroke-opacity="1" stroke-width="1" stroke-linecap="square" stroke-linejoin="bevel" transform="matrix(1.99949,0,0,1.99949,1.42072e-14,71.9815)"
font-family="Sans Serif" font-size="9" font-weight="400" font-style="normal" 
>
</g>

<g fill="none" stroke="#000000" stroke-opacity="1" stroke-width="1" stroke-linecap="square" stroke-linejoin="round" transform="matrix(1.99949,0,0,1.99949,1.42072e-14,71.9815)"
font-family="Sans Serif" font-size="9" font-weight="400" font-style="normal" 
>
<path vector-effect="none" fill-rule="evenodd" d="M426.6,-18 C427.68,-18 428.78,-18 429.88,-18 "/>
</g>

<g fill="none" stroke="#000000" stroke-opacity="1" stroke-width="1" stroke-linecap="square" stroke-linejoin="bevel" transform="matrix(1.99949,0,0,1.99949,1.42072e-14,71.9815)"
font-family="Sans Serif" font-size="9" font-weight="400" font-style="normal" 
>
</g>

<g fill="none" stroke="#000000" stroke-opacity="1" stroke-width="1" stroke-linecap="square" stroke-linejoin="bevel" transform="matrix(1.99949,0,0,1.99949,1.42072e-14,71.9815)"
font-family="Sans Serif" font-size="9" font-weight="400" font-style="normal" 
>
</g>

<g fill="#000000" fill-opacity="1" stroke="#000000" stroke-opacity="1" stroke-width="1" stroke-linecap="square" stroke-linejoin="round" transform="matrix(1.99949,0,0,1.99949,1.42072e-14,71.9815)"
font-family="Sans Serif" font-size="9" font-weight="400" font-style="normal" 
>
<path vector-effect="none" fill-rule="evenodd" d="M429.88,-18 L429.88,-14.4335 L440.07,-18 L429.88,-21.5665 L429.88,-18"/>
</g>

<g fill="none" stroke="#000000" stroke-opacity="1" stroke-width="1" stroke-linecap="square" stroke-linejoin="bevel" transform="matrix(1.99949,0,0,1.99949,1.42072e-14,71.9815)"
font-family="Sans Serif" font-size="9" font-weight="400" font-style="normal" 
>
</g>

<g fill="none" stroke="#000000" stroke-opacity="1" stroke-width="1" stroke-linecap="square" stroke-linejoin="bevel" transform="matrix(1.99949,0,0,1.99949,1.42072e-14,71.9815)"
font-family="Sans Serif" font-size="9" font-weight="400" font-style="normal" 
>
</g>

<g fill="none" stroke="#000000" stroke-opacity="1" stroke-width="1" stroke-linecap="square" stroke-linejoin="bevel" transform="matrix(1.99949,0,0,1.99949,1.42072e-14,71.9815)"
font-family="Sans Serif" font-size="9" font-weight="400" font-style="normal" 
>
</g>

<g fill="none" stroke="#000000" stroke-opacity="1" stroke-width="1" stroke-linecap="square" stroke-linejoin="bevel" transform="matrix(1.99949,0,0,1.99949,1.42072e-14,71.9815)"
font-family="Sans Serif" font-size="9" font-weight="400" font-style="normal" 
>
</g>

<g fill="none" stroke="#000000" stroke-opacity="1" stroke-width="1" stroke-linecap="square" stroke-linejoin="round" transform="matrix(1.99949,0,0,1.99949,1.42072e-14,71.9815)"
font-family="Sans Serif" font-size="9" font-weight="400" font-style="normal" 
>
<path vector-effect="none" fill-rule="evenodd" d="M96.207,-18 C97.391,-18 98.575,-18 99.754,-18 "/>
</g>

<g fill="none" stroke="#000000" stroke-opacity="1" stroke-width="1" stroke-linecap="square" stroke-linejoin="bevel" transform="matrix(1.99949,0,0,1.99949,1.42072e-14,71.9815)"
font-family="Sans Serif" font-size="9" font-weight="400" font-style="normal" 
>
</g>

<g fill="none" stroke="#000000" stroke-opacity="1" stroke-width="1" stroke-linecap="square" stroke-linejoin="bevel" transform="matrix(1.99949,0,0,1.99949,1.42072e-14,71.9815)"
font-family="Sans Serif" font-size="9" font-weight="400" font-style="normal" 
>
</g>

<g fill="#000000" fill-opacity="1" stroke="#000000" stroke-opacity="1" stroke-width="1" stroke-linecap="square" stroke-linejoin="round" transform="matrix(1.99949,0,0,1.99949,1.42072e-14,71.9815)"
font-family="Sans Serif" font-size="9" font-weight="400" font-style="normal" 
>
<path vector-effect="none" fill-rule="evenodd" d="M99.754,-18 L99.754,-14.3509 L110.18,-18 L99.754,-21.6491 L99.754,-18"/>
</g>

<g fill="none" stroke="#000000" stroke-opacity="1" stroke-width="1" stroke-linecap="square" stroke-linejoin="bevel" transform="matrix(1.99949,0,0,1.99949,1.42072e-14,71.9815)"
font-family="Sans Serif" font-size="9" font-weight="400" font-style="normal" 
>
</g>

<g fill="none" stroke="#000000" stroke-opacity="1" stroke-width="1" stroke-linecap="square" stroke-linejoin="bevel" transform="matrix(1.99949,0,0,1.99949,1.42072e-14,71.9815)"
font-family="Sans Serif" font-size="9" font-weight="400" font-style="normal" 
>
</g>

<g fill="none" stroke="#000000" stroke-opacity="1" stroke-width="1" stroke-linecap="square" stroke-linejoin="bevel" transform="matrix(1.99949,0,0,1.99949,1.42072e-14,71.9815)"
font-family="Sans Serif" font-size="9" font-weight="400" font-style="normal" 
>
</g>

<g fill="none" stroke="#000000" stroke-opacity="1" stroke-width="1" stroke-linecap="square" stroke-linejoin="bevel" transform="matrix(1.99949,0,0,1.99949,1.42072e-14,71.9815)"
font-family="Sans Serif" font-size="9" font-weight="400" font-style="normal" 
>
</g>

<g fill="none" stroke="#000000" stroke-opacity="1" stroke-width="1" stroke-linecap="square" stroke-linejoin="round" transform="matrix(1.99949,0,0,1.99949,1.42072e-14,71.9815)"
font-family="Sans Serif" font-size="9" font-weight="400" font-style="normal" 
>
<path vector-effect="none" fill-rule="evenodd" d="M328.37,-18 C329.54,-18 330.7,-18 331.86,-18 "/>
</g>

<g fill="none" stroke="#000000" stroke-opacity="1" stroke-width="1" stroke-linecap="square" stroke-linejoin="bevel" transform="matrix(1.99949,0,0,1.99949,1.42072e-14,71.9815)"
font-family="Sans Serif" font-size="9" font-weight="400" font-style="normal" 
>
</g>

<g fill="none" stroke="#000000" stroke-opacity="1" stroke-width="1" stroke-linecap="square" stroke-linejoin="bevel" transform="matrix(1.99949,0,0,1.99949,1.42072e-14,71.9815)"
font-family="Sans Serif" font-size="9" font-weight="400" font-style="normal" 
>
</g>

<g fill="#000000" fill-opacity="1" stroke="#000000" stroke-opacity="1" stroke-width="1" stroke-linecap="square" stroke-linejoin="round" transform="matrix(1.99949,0,0,1.99949,1.42072e-14,71.9815)"
font-family="Sans Serif" font-size="9" font-weight="400" font-style="normal" 
>
<path vector-effect="none" fill-rule="evenodd" d="M331.86,-18 L331.86,-14.416 L342.1,-18 L331.86,-21.584 L331.86,-18"/>
</g>

<g fill="none" stroke="#000000" stroke-opacity="1" stroke-width="1" stroke-linecap="square" stroke-linejoin="bevel" transform="matrix(1.99949,0,0,1.99949,1.42072e-14,71.9815)"
font-family="Sans Serif" font-size="9" font-weight="400" font-style="normal" 
>
</g>

<g fill="none" stroke="#000000" stroke-opacity="1" stroke-width="1" stroke-linecap="square" stroke-linejoin="bevel" transform="matrix(1,0,0,1,0,0)"
font-family="Sans Serif" font-size="9" font-weight="400" font-style="normal" 
>
</g>
</g>
</svg>
